<?xml version="1.0" standalone="no"?>
<!DOCTYPE svg PUBLIC "-//W3C//DTD SVG 20010904//EN"
 "http://www.w3.org/TR/2001/REC-SVG-20010904/DTD/svg10.dtd">
<svg version="1.0" xmlns="http://www.w3.org/2000/svg"
 width="512.000000pt" height="512.000000pt" viewBox="0 0 512.000000 512.000000"
 preserveAspectRatio="xMidYMid meet">

<g transform="translate(0.000000,512.000000) scale(0.100000,-0.100000)"
fill="#2AABE4" stroke="none">
<path d="M4025 4249 c-11 -6 -350 -340 -752 -743 l-733 -731 -722 722 c-785
783 -742 746 -835 728 -49 -9 -109 -69 -118 -118 -18 -94 -62 -43 803 -910
859 -860 829 -833 910 -809 30 9 192 166 849 824 725 726 812 817 819 851 14
81 -16 151 -80 181 -39 18 -111 21 -141 5z"/>
<path d="M4025 2714 c-16 -9 -357 -343 -757 -742 l-728 -727 -717 717 c-640
638 -723 718 -760 728 -118 30 -220 -67 -198 -187 6 -34 97 -128 808 -841 864
-864 823 -827 904 -808 36 9 1638 1606 1659 1653 31 71 8 147 -58 196 -36 27
-114 32 -153 11z"/>
</g>
</svg>
