<?xml version="1.0" standalone="no"?>
<!DOCTYPE svg PUBLIC "-//W3C//DTD SVG 20010904//EN"
 "http://www.w3.org/TR/2001/REC-SVG-20010904/DTD/svg10.dtd">
<svg version="1.0" xmlns="http://www.w3.org/2000/svg"
 width="100.000000pt" height="96.000000pt" viewBox="0 0 100.000000 96.000000"
 preserveAspectRatio="xMidYMid meet">

<g transform="translate(0.000000,96.000000) scale(0.100000,-0.100000)"
fill="#2AABE4" stroke="none">
<path d="M47 938 c-24 -19 -38 -64 -28 -90 5 -13 116 -129 245 -258 l236 -235
247 247 c240 241 246 247 239 280 -8 41 -39 68 -79 68 -27 0 -56 -26 -219
-187 l-188 -187 -188 187 c-160 159 -193 187 -218 187 -17 0 -38 -6 -47 -12z"/>
<path d="M52 594 c-30 -20 -44 -58 -33 -86 4 -12 116 -129 247 -260 l239 -238
232 232 c128 128 238 245 244 261 22 53 -32 116 -88 102 -17 -4 -98 -77 -210
-188 l-183 -181 -178 176 c-210 209 -221 216 -270 182z"/>
</g>
</svg>
